<svg width="32" height="32" viewBox="0 0 32 32" fill="none" xmlns="http://www.w3.org/2000/svg">
  <rect width="32" height="32" fill="#2563EB" rx="4"/>
  <g transform="translate(7, 7)">
    <path d="M11.6463 1.8841C10.9192 1.15695 9.74025 1.15692 9.01304 1.88412L1.99074 8.90641C1.74834 9.14881 1.35534 9.14881 1.11295 8.90641C0.870554 8.66402 0.870554 8.27102 1.11295 8.02863L8.13526 1.00633C9.34722 -0.205623 11.3122 -0.205657 12.5241 1.00632C13.242 1.72417 13.5347 2.70621 13.4022 3.63948C14.3355 3.50696 15.3175 3.79962 16.0354 4.51747L16.0719 4.55404L16.072 4.55415C17.2839 5.76613 17.2839 7.73105 16.0719 8.94298L9.72089 15.2941C9.64011 15.3748 9.64009 15.5058 9.72087 15.5866L11.025 16.8908C11.2674 17.1332 11.2674 17.5262 11.025 17.7686C10.7826 18.0109 10.3896 18.0109 10.1472 17.7685L8.84311 16.4644C8.27754 15.8988 8.27751 14.9818 8.84309 14.4163L15.1941 8.0652C15.9213 7.33803 15.9213 6.15903 15.1941 5.43184L15.1576 5.39528L15.1575 5.39517C14.4309 4.66872 13.2534 4.66813 12.526 5.39337L7.29404 10.6254L7.29123 10.6282L7.22089 10.6986C6.97849 10.941 6.58549 10.941 6.3431 10.6986C6.1007 10.4562 6.1007 10.0632 6.34309 9.82079L11.648 4.51584C12.3736 3.78853 12.373 2.61073 11.6463 1.8841Z" fill="white"/>
    <path d="M10.7686 3.63969C11.011 3.3973 11.011 3.0043 10.7686 2.76191C10.5262 2.51951 10.1332 2.51951 9.89084 2.7619L4.69724 7.95548C3.48527 9.16744 3.48532 11.1325 4.69725 12.3445C5.90922 13.5563 7.87422 13.5563 9.08619 12.3444L14.2798 7.15084C14.5222 6.90844 14.5222 6.51545 14.2798 6.27305C14.0374 6.03066 13.6444 6.03066 13.402 6.27305L8.2084 11.4667C7.48122 12.1938 6.30222 12.1938 5.57504 11.4667C4.84784 10.7394 4.84787 9.56042 5.57503 8.83327L10.7686 3.63969Z" fill="white"/>
  </g>
</svg>
